<?xml version="1.0" encoding="UTF-8"?>
<mxfile host="app.diagrams.net" modified="2023-02-26T15:52:36.932Z" agent="5.0 (Macintosh; Intel Mac OS X 10_15_7) AppleWebKit/537.36 (KHTML, like Gecko) Chrome/109.0.0.0 Safari/537.36" etag="Z895IZnNnNrgk5MdWvkf" version="20.8.20" type="google">
  <diagram name="Page-1" id="J5ETGzlUAU1WrjNVFTcA">
    <mxGraphModel dx="675" dy="871" grid="1" gridSize="10" guides="1" tooltips="1" connect="1" arrows="1" fold="1" page="1" pageScale="1" pageWidth="1100" pageHeight="850" math="0" shadow="0">
      <root>
        <mxCell id="0" />
        <mxCell id="1" parent="0" />
        <mxCell id="2Cz_7f0iNEZ1WeliGhy7-6" style="edgeStyle=orthogonalEdgeStyle;rounded=0;orthogonalLoop=1;jettySize=auto;html=1;" edge="1" parent="1" source="2Cz_7f0iNEZ1WeliGhy7-2">
          <mxGeometry relative="1" as="geometry">
            <mxPoint x="100" y="120" as="targetPoint" />
          </mxGeometry>
        </mxCell>
        <mxCell id="2Cz_7f0iNEZ1WeliGhy7-2" value="" style="shape=ellipse;html=1;fillColor=#000000;strokeWidth=2;verticalLabelPosition=bottom;verticalAlignment=top;perimeter=ellipsePerimeter;" vertex="1" parent="1">
          <mxGeometry x="20" y="110" width="20" height="20" as="geometry" />
        </mxCell>
        <mxCell id="2Cz_7f0iNEZ1WeliGhy7-8" style="edgeStyle=orthogonalEdgeStyle;rounded=0;orthogonalLoop=1;jettySize=auto;html=1;fontSize=11;entryX=0;entryY=0.5;entryDx=0;entryDy=0;" edge="1" parent="1" source="2Cz_7f0iNEZ1WeliGhy7-5" target="2Cz_7f0iNEZ1WeliGhy7-7">
          <mxGeometry relative="1" as="geometry">
            <mxPoint x="290" y="120" as="targetPoint" />
          </mxGeometry>
        </mxCell>
        <mxCell id="2Cz_7f0iNEZ1WeliGhy7-5" value="&lt;font style=&quot;font-size: 13px;&quot;&gt;check facilities&lt;/font&gt;" style="rhombus;whiteSpace=wrap;html=1;" vertex="1" parent="1">
          <mxGeometry x="100" y="75" width="110" height="90" as="geometry" />
        </mxCell>
        <mxCell id="2Cz_7f0iNEZ1WeliGhy7-23" style="edgeStyle=orthogonalEdgeStyle;rounded=0;orthogonalLoop=1;jettySize=auto;html=1;fontSize=11;" edge="1" parent="1" source="2Cz_7f0iNEZ1WeliGhy7-7">
          <mxGeometry relative="1" as="geometry">
            <mxPoint x="410" y="120" as="targetPoint" />
          </mxGeometry>
        </mxCell>
        <mxCell id="2Cz_7f0iNEZ1WeliGhy7-7" value="&lt;div&gt;&lt;font style=&quot;font-size: 14px;&quot;&gt;choose meals&lt;/font&gt;&lt;/div&gt;" style="rounded=1;whiteSpace=wrap;html=1;strokeWidth=1;fontSize=11;" vertex="1" parent="1">
          <mxGeometry x="250" y="90" width="100" height="60" as="geometry" />
        </mxCell>
        <mxCell id="2Cz_7f0iNEZ1WeliGhy7-28" value="&lt;font style=&quot;font-size: 15px;&quot;&gt;Yes&lt;/font&gt;" style="edgeStyle=orthogonalEdgeStyle;rounded=0;orthogonalLoop=1;jettySize=auto;html=1;fontSize=11;entryX=0;entryY=0.5;entryDx=0;entryDy=0;" edge="1" parent="1" source="2Cz_7f0iNEZ1WeliGhy7-21" target="2Cz_7f0iNEZ1WeliGhy7-29">
          <mxGeometry x="-0.007" relative="1" as="geometry">
            <mxPoint x="940" y="535" as="targetPoint" />
            <mxPoint x="860" y="535" as="sourcePoint" />
            <mxPoint as="offset" />
          </mxGeometry>
        </mxCell>
        <mxCell id="2Cz_7f0iNEZ1WeliGhy7-109" value="&lt;font style=&quot;font-size: 17px;&quot;&gt;no&lt;/font&gt;" style="edgeStyle=orthogonalEdgeStyle;rounded=0;orthogonalLoop=1;jettySize=auto;html=1;entryX=0;entryY=0.5;entryDx=0;entryDy=0;fontSize=15;exitX=0.5;exitY=0;exitDx=0;exitDy=0;" edge="1" parent="1" source="2Cz_7f0iNEZ1WeliGhy7-21" target="2Cz_7f0iNEZ1WeliGhy7-25">
          <mxGeometry x="0.0099" relative="1" as="geometry">
            <mxPoint as="offset" />
          </mxGeometry>
        </mxCell>
        <mxCell id="2Cz_7f0iNEZ1WeliGhy7-21" value="&lt;font style=&quot;font-size: 12px;&quot;&gt;Do you have account?&lt;/font&gt;" style="rhombus;whiteSpace=wrap;html=1;fontSize=11;" vertex="1" parent="1">
          <mxGeometry x="770" y="500" width="80" height="80" as="geometry" />
        </mxCell>
        <mxCell id="2Cz_7f0iNEZ1WeliGhy7-77" style="edgeStyle=orthogonalEdgeStyle;rounded=0;orthogonalLoop=1;jettySize=auto;html=1;entryX=0.5;entryY=0;entryDx=0;entryDy=0;fontSize=11;" edge="1" parent="1" target="2Cz_7f0iNEZ1WeliGhy7-29">
          <mxGeometry relative="1" as="geometry">
            <mxPoint x="900" y="445" as="sourcePoint" />
          </mxGeometry>
        </mxCell>
        <mxCell id="2Cz_7f0iNEZ1WeliGhy7-25" value="&lt;div&gt;&lt;font style=&quot;font-size: 15px;&quot;&gt;Sign up&lt;/font&gt;&lt;/div&gt;" style="rounded=1;whiteSpace=wrap;html=1;strokeWidth=1;fontSize=11;" vertex="1" parent="1">
          <mxGeometry x="880" y="425" width="100" height="40" as="geometry" />
        </mxCell>
        <mxCell id="2Cz_7f0iNEZ1WeliGhy7-32" style="edgeStyle=orthogonalEdgeStyle;rounded=0;orthogonalLoop=1;jettySize=auto;html=1;fontSize=11;" edge="1" parent="1" source="2Cz_7f0iNEZ1WeliGhy7-29">
          <mxGeometry relative="1" as="geometry">
            <mxPoint x="1020" y="565" as="targetPoint" />
          </mxGeometry>
        </mxCell>
        <mxCell id="2Cz_7f0iNEZ1WeliGhy7-29" value="&lt;div&gt;&lt;font style=&quot;font-size: 15px;&quot;&gt;Log in&lt;/font&gt;&lt;/div&gt;" style="rounded=1;whiteSpace=wrap;html=1;strokeWidth=1;fontSize=11;" vertex="1" parent="1">
          <mxGeometry x="970" y="485" width="100" height="40" as="geometry" />
        </mxCell>
        <mxCell id="2Cz_7f0iNEZ1WeliGhy7-35" style="edgeStyle=orthogonalEdgeStyle;rounded=0;orthogonalLoop=1;jettySize=auto;html=1;entryX=0.5;entryY=0;entryDx=0;entryDy=0;fontSize=11;" edge="1" parent="1" source="2Cz_7f0iNEZ1WeliGhy7-33" target="2Cz_7f0iNEZ1WeliGhy7-34">
          <mxGeometry relative="1" as="geometry" />
        </mxCell>
        <mxCell id="2Cz_7f0iNEZ1WeliGhy7-33" value="&lt;font style=&quot;font-size: 14px;&quot;&gt;Submit Order&lt;/font&gt;" style="rounded=1;whiteSpace=wrap;html=1;strokeWidth=1;fontSize=11;" vertex="1" parent="1">
          <mxGeometry x="970" y="565" width="100" height="40" as="geometry" />
        </mxCell>
        <mxCell id="2Cz_7f0iNEZ1WeliGhy7-39" style="edgeStyle=orthogonalEdgeStyle;rounded=0;orthogonalLoop=1;jettySize=auto;html=1;fontSize=11;" edge="1" parent="1" source="2Cz_7f0iNEZ1WeliGhy7-34">
          <mxGeometry relative="1" as="geometry">
            <mxPoint x="1020" y="715" as="targetPoint" />
          </mxGeometry>
        </mxCell>
        <mxCell id="2Cz_7f0iNEZ1WeliGhy7-34" value="&lt;font style=&quot;font-size: 15px;&quot;&gt;Payment&lt;/font&gt;" style="rounded=1;whiteSpace=wrap;html=1;strokeWidth=1;fontSize=11;" vertex="1" parent="1">
          <mxGeometry x="970" y="635" width="100" height="40" as="geometry" />
        </mxCell>
        <mxCell id="2Cz_7f0iNEZ1WeliGhy7-42" style="edgeStyle=orthogonalEdgeStyle;rounded=0;orthogonalLoop=1;jettySize=auto;html=1;entryX=0.5;entryY=0;entryDx=0;entryDy=0;fontSize=11;" edge="1" parent="1" source="2Cz_7f0iNEZ1WeliGhy7-40">
          <mxGeometry relative="1" as="geometry">
            <mxPoint x="1020" y="790" as="targetPoint" />
          </mxGeometry>
        </mxCell>
        <mxCell id="2Cz_7f0iNEZ1WeliGhy7-40" value="&lt;font style=&quot;font-size: 14px;&quot;&gt;Order Confirmation&lt;/font&gt;" style="rounded=1;whiteSpace=wrap;html=1;strokeWidth=1;fontSize=11;" vertex="1" parent="1">
          <mxGeometry x="970" y="715" width="100" height="40" as="geometry" />
        </mxCell>
        <mxCell id="2Cz_7f0iNEZ1WeliGhy7-45" value="" style="html=1;shape=mxgraph.sysml.actFinal;strokeWidth=2;verticalLabelPosition=bottom;verticalAlignment=top;fontSize=11;" vertex="1" parent="1">
          <mxGeometry x="1005" y="790" width="30" height="30" as="geometry" />
        </mxCell>
        <mxCell id="2Cz_7f0iNEZ1WeliGhy7-82" style="edgeStyle=orthogonalEdgeStyle;rounded=0;orthogonalLoop=1;jettySize=auto;html=1;entryX=0;entryY=0.5;entryDx=0;entryDy=0;fontSize=11;" edge="1" parent="1" source="2Cz_7f0iNEZ1WeliGhy7-79" target="2Cz_7f0iNEZ1WeliGhy7-80">
          <mxGeometry relative="1" as="geometry" />
        </mxCell>
        <mxCell id="2Cz_7f0iNEZ1WeliGhy7-83" style="edgeStyle=orthogonalEdgeStyle;rounded=0;orthogonalLoop=1;jettySize=auto;html=1;entryX=0;entryY=0.5;entryDx=0;entryDy=0;fontSize=11;" edge="1" parent="1" source="2Cz_7f0iNEZ1WeliGhy7-79" target="2Cz_7f0iNEZ1WeliGhy7-81">
          <mxGeometry relative="1" as="geometry" />
        </mxCell>
        <mxCell id="2Cz_7f0iNEZ1WeliGhy7-79" value="fork" style="line;strokeWidth=10;html=1;fontSize=11;rotation=-90;" vertex="1" parent="1">
          <mxGeometry x="330" y="115" width="160" height="10" as="geometry" />
        </mxCell>
        <mxCell id="2Cz_7f0iNEZ1WeliGhy7-85" style="edgeStyle=orthogonalEdgeStyle;rounded=0;orthogonalLoop=1;jettySize=auto;html=1;entryX=0.809;entryY=0.5;entryDx=0;entryDy=0;entryPerimeter=0;fontSize=11;" edge="1" parent="1" source="2Cz_7f0iNEZ1WeliGhy7-80" target="2Cz_7f0iNEZ1WeliGhy7-84">
          <mxGeometry relative="1" as="geometry" />
        </mxCell>
        <mxCell id="2Cz_7f0iNEZ1WeliGhy7-80" value="&lt;div&gt;&lt;font style=&quot;font-size: 13px;&quot;&gt;Process Main courses&lt;/font&gt;&lt;/div&gt;" style="rounded=1;whiteSpace=wrap;html=1;strokeWidth=1;fontSize=11;" vertex="1" parent="1">
          <mxGeometry x="460" y="50" width="100" height="40" as="geometry" />
        </mxCell>
        <mxCell id="2Cz_7f0iNEZ1WeliGhy7-86" style="edgeStyle=orthogonalEdgeStyle;rounded=0;orthogonalLoop=1;jettySize=auto;html=1;entryX=0.291;entryY=0.2;entryDx=0;entryDy=0;entryPerimeter=0;fontSize=11;" edge="1" parent="1" source="2Cz_7f0iNEZ1WeliGhy7-81" target="2Cz_7f0iNEZ1WeliGhy7-84">
          <mxGeometry relative="1" as="geometry">
            <Array as="points">
              <mxPoint x="607" y="150" />
            </Array>
          </mxGeometry>
        </mxCell>
        <mxCell id="2Cz_7f0iNEZ1WeliGhy7-81" value="&lt;div&gt;&lt;font style=&quot;font-size: 13px;&quot;&gt;Process Dessert&lt;/font&gt;&lt;/div&gt;" style="rounded=1;whiteSpace=wrap;html=1;strokeWidth=1;fontSize=11;" vertex="1" parent="1">
          <mxGeometry x="460" y="130" width="100" height="40" as="geometry" />
        </mxCell>
        <mxCell id="2Cz_7f0iNEZ1WeliGhy7-87" style="edgeStyle=orthogonalEdgeStyle;rounded=0;orthogonalLoop=1;jettySize=auto;html=1;fontSize=11;" edge="1" parent="1" source="2Cz_7f0iNEZ1WeliGhy7-84">
          <mxGeometry relative="1" as="geometry">
            <mxPoint x="670" y="120" as="targetPoint" />
          </mxGeometry>
        </mxCell>
        <mxCell id="2Cz_7f0iNEZ1WeliGhy7-84" value="join" style="line;strokeWidth=10;html=1;fontSize=11;rotation=-90;" vertex="1" parent="1">
          <mxGeometry x="530" y="115" width="160" height="10" as="geometry" />
        </mxCell>
        <mxCell id="2Cz_7f0iNEZ1WeliGhy7-89" style="edgeStyle=orthogonalEdgeStyle;rounded=0;orthogonalLoop=1;jettySize=auto;html=1;fontSize=11;" edge="1" parent="1" source="2Cz_7f0iNEZ1WeliGhy7-88">
          <mxGeometry relative="1" as="geometry">
            <mxPoint x="720" y="220" as="targetPoint" />
          </mxGeometry>
        </mxCell>
        <mxCell id="2Cz_7f0iNEZ1WeliGhy7-88" value="&lt;div&gt;&lt;font style=&quot;font-size: 14px;&quot;&gt;choose music band&lt;/font&gt;&lt;/div&gt;" style="rounded=1;whiteSpace=wrap;html=1;strokeWidth=1;fontSize=11;" vertex="1" parent="1">
          <mxGeometry x="670" y="100" width="100" height="60" as="geometry" />
        </mxCell>
        <mxCell id="2Cz_7f0iNEZ1WeliGhy7-95" value="&lt;font style=&quot;font-size: 15px;&quot;&gt;yes&lt;/font&gt;" style="edgeStyle=orthogonalEdgeStyle;rounded=0;orthogonalLoop=1;jettySize=auto;html=1;fontSize=10;" edge="1" parent="1" source="2Cz_7f0iNEZ1WeliGhy7-91">
          <mxGeometry x="-0.0154" relative="1" as="geometry">
            <mxPoint x="720" y="340" as="targetPoint" />
            <mxPoint as="offset" />
          </mxGeometry>
        </mxCell>
        <mxCell id="2Cz_7f0iNEZ1WeliGhy7-102" style="edgeStyle=orthogonalEdgeStyle;rounded=0;orthogonalLoop=1;jettySize=auto;html=1;fontSize=10;entryX=0;entryY=0.25;entryDx=0;entryDy=0;" edge="1" parent="1" source="2Cz_7f0iNEZ1WeliGhy7-91" target="2Cz_7f0iNEZ1WeliGhy7-100">
          <mxGeometry relative="1" as="geometry">
            <mxPoint x="650" y="460" as="targetPoint" />
            <Array as="points">
              <mxPoint x="630" y="253" />
              <mxPoint x="630" y="440" />
            </Array>
          </mxGeometry>
        </mxCell>
        <mxCell id="2Cz_7f0iNEZ1WeliGhy7-103" value="&lt;font style=&quot;font-size: 16px;&quot;&gt;no&lt;/font&gt;" style="edgeLabel;html=1;align=center;verticalAlign=middle;resizable=0;points=[];fontSize=10;" vertex="1" connectable="0" parent="2Cz_7f0iNEZ1WeliGhy7-102">
          <mxGeometry x="-0.2077" y="-3" relative="1" as="geometry">
            <mxPoint as="offset" />
          </mxGeometry>
        </mxCell>
        <mxCell id="2Cz_7f0iNEZ1WeliGhy7-91" value="&lt;font style=&quot;font-size: 12px;&quot;&gt;Do you&lt;br&gt;&amp;nbsp;want to have a photo grapher?&lt;/font&gt;" style="rhombus;whiteSpace=wrap;html=1;fontSize=11;" vertex="1" parent="1">
          <mxGeometry x="660" y="215" width="120" height="75" as="geometry" />
        </mxCell>
        <mxCell id="2Cz_7f0iNEZ1WeliGhy7-97" value="&lt;font style=&quot;font-size: 15px;&quot;&gt;Add photo grapher&lt;/font&gt;" style="rounded=1;whiteSpace=wrap;html=1;strokeWidth=1;fontSize=11;" vertex="1" parent="1">
          <mxGeometry x="670" y="340" width="100" height="40" as="geometry" />
        </mxCell>
        <mxCell id="2Cz_7f0iNEZ1WeliGhy7-99" style="edgeStyle=orthogonalEdgeStyle;rounded=0;orthogonalLoop=1;jettySize=auto;html=1;fontSize=10;" edge="1" parent="1">
          <mxGeometry relative="1" as="geometry">
            <mxPoint x="720" y="430" as="targetPoint" />
            <mxPoint x="720" y="380" as="sourcePoint" />
          </mxGeometry>
        </mxCell>
        <mxCell id="2Cz_7f0iNEZ1WeliGhy7-104" style="edgeStyle=orthogonalEdgeStyle;rounded=0;orthogonalLoop=1;jettySize=auto;html=1;fontSize=10;entryX=1;entryY=0.5;entryDx=0;entryDy=0;" edge="1" parent="1" source="2Cz_7f0iNEZ1WeliGhy7-100" target="2Cz_7f0iNEZ1WeliGhy7-105">
          <mxGeometry relative="1" as="geometry">
            <mxPoint x="720" y="530" as="targetPoint" />
          </mxGeometry>
        </mxCell>
        <mxCell id="2Cz_7f0iNEZ1WeliGhy7-100" value="&lt;font style=&quot;font-size: 14px;&quot;&gt;Select Date&lt;/font&gt;" style="rounded=1;whiteSpace=wrap;html=1;strokeWidth=1;fontSize=11;" vertex="1" parent="1">
          <mxGeometry x="670" y="430" width="100" height="40" as="geometry" />
        </mxCell>
        <mxCell id="2Cz_7f0iNEZ1WeliGhy7-106" value="&lt;font style=&quot;font-size: 13px;&quot;&gt;Yes, edit meals&amp;nbsp;&lt;/font&gt;" style="edgeStyle=orthogonalEdgeStyle;rounded=0;orthogonalLoop=1;jettySize=auto;html=1;entryX=0.5;entryY=1;entryDx=0;entryDy=0;fontSize=10;exitX=0;exitY=0.5;exitDx=0;exitDy=0;" edge="1" parent="1" source="2Cz_7f0iNEZ1WeliGhy7-105" target="2Cz_7f0iNEZ1WeliGhy7-7">
          <mxGeometry x="0.45" relative="1" as="geometry">
            <Array as="points">
              <mxPoint x="300" y="535" />
            </Array>
            <mxPoint as="offset" />
          </mxGeometry>
        </mxCell>
        <mxCell id="2Cz_7f0iNEZ1WeliGhy7-107" value="&lt;font style=&quot;font-size: 13px;&quot;&gt;Yes edit Music band&lt;/font&gt;" style="edgeStyle=orthogonalEdgeStyle;rounded=0;orthogonalLoop=1;jettySize=auto;html=1;fontSize=11;" edge="1" parent="1" source="2Cz_7f0iNEZ1WeliGhy7-105">
          <mxGeometry x="-0.4476" relative="1" as="geometry">
            <mxPoint x="670" y="140" as="targetPoint" />
            <Array as="points">
              <mxPoint x="490" y="220" />
              <mxPoint x="650" y="220" />
              <mxPoint x="650" y="140" />
            </Array>
            <mxPoint as="offset" />
          </mxGeometry>
        </mxCell>
        <mxCell id="2Cz_7f0iNEZ1WeliGhy7-108" value="&lt;font style=&quot;font-size: 18px;&quot;&gt;no&lt;/font&gt;" style="edgeStyle=orthogonalEdgeStyle;rounded=0;orthogonalLoop=1;jettySize=auto;html=1;fontSize=14;entryX=0;entryY=0.5;entryDx=0;entryDy=0;exitX=0.5;exitY=1;exitDx=0;exitDy=0;" edge="1" parent="1" source="2Cz_7f0iNEZ1WeliGhy7-105" target="2Cz_7f0iNEZ1WeliGhy7-21">
          <mxGeometry x="0.0034" relative="1" as="geometry">
            <mxPoint x="640" y="560" as="targetPoint" />
            <mxPoint as="offset" />
          </mxGeometry>
        </mxCell>
        <mxCell id="2Cz_7f0iNEZ1WeliGhy7-105" value="&lt;font style=&quot;font-size: 14px;&quot;&gt;Do you &lt;br&gt;want to Edit your request?&lt;/font&gt;" style="rhombus;whiteSpace=wrap;html=1;fontSize=11;" vertex="1" parent="1">
          <mxGeometry x="440" y="480" width="110" height="110" as="geometry" />
        </mxCell>
      </root>
    </mxGraphModel>
  </diagram>
</mxfile>
